<svg width="454" height="312" viewBox="0 0 454 312" fill="none" xmlns="http://www.w3.org/2000/svg">
<path d="M0 5C0 2.23857 2.23858 0 5 0H140.116C142.878 0 145.116 2.23858 145.116 5V92.9535C145.116 95.7149 142.878 97.9535 140.116 97.9535H5C2.23857 97.9535 0 95.7149 0 92.9535V5Z" fill="#426665"/>
<path d="M38.093 61.6744H107.023V72.5581H38.093V61.6744Z" fill="#1A3E3D"/>
<path d="M38.093 19.9535H107.023V48.9767H38.093V19.9535Z" fill="#1A3E3D"/>
<path d="M43.5349 25.3953H101.581V43.5349H43.5349V25.3953Z" fill="#426665"/>
<path d="M0 112.023C0 109.262 2.23858 107.023 5 107.023H140.116C142.878 107.023 145.116 109.262 145.116 112.023V199.977C145.116 202.738 142.878 204.977 140.116 204.977H5C2.23857 204.977 0 202.738 0 199.977V112.023Z" fill="#426665"/>
<path d="M38.093 168.698H107.023V179.582H38.093V168.698Z" fill="#1A3E3D"/>
<path d="M38.093 126.977H107.023V156H38.093V126.977Z" fill="#1A3E3D"/>
<path d="M43.5349 132.419H101.581V150.558H43.5349V132.419Z" fill="#426665"/>
<path d="M0 219.046C0 216.285 2.23858 214.046 5 214.046H140.116C142.878 214.046 145.116 216.285 145.116 219.046V307C145.116 309.761 142.878 312 140.116 312H5C2.23857 312 0 309.761 0 307V219.046Z" fill="#426665"/>
<path d="M38.093 275.721H107.023V286.605H38.093V275.721Z" fill="#1A3E3D"/>
<path d="M38.093 234H107.023V263.023H38.093V234Z" fill="#1A3E3D"/>
<path d="M43.5349 239.442H101.581V257.581H43.5349V239.442Z" fill="#426665"/>
<path d="M154.186 5C154.186 2.23857 156.425 0 159.186 0H294.302C297.064 0 299.302 2.23858 299.302 5V92.9535C299.302 95.7149 297.064 97.9535 294.302 97.9535H159.186C156.425 97.9535 154.186 95.7149 154.186 92.9535V5Z" fill="#426665"/>
<path d="M192.279 61.6744H261.209V72.5581H192.279V61.6744Z" fill="#1A3E3D"/>
<path d="M192.279 19.9535H261.209V48.9767H192.279V19.9535Z" fill="#1A3E3D"/>
<path d="M197.721 25.3953H255.767V43.5349H197.721V25.3953Z" fill="#426665"/>
<path d="M154.186 112.023C154.186 109.262 156.425 107.023 159.186 107.023H294.302C297.064 107.023 299.302 109.262 299.302 112.023V199.977C299.302 202.738 297.064 204.977 294.302 204.977H159.186C156.425 204.977 154.186 202.738 154.186 199.977V112.023Z" fill="#426665"/>
<path d="M192.279 168.698H261.209V179.582H192.279V168.698Z" fill="#1A3E3D"/>
<path d="M192.279 126.977H261.209V156H192.279V126.977Z" fill="#1A3E3D"/>
<path d="M197.721 132.419H255.767V150.558H197.721V132.419Z" fill="#426665"/>
<path d="M154.186 219.046C154.186 216.285 156.425 214.046 159.186 214.046H294.302C297.064 214.046 299.302 216.285 299.302 219.046V307C299.302 309.761 297.064 312 294.302 312H159.186C156.425 312 154.186 309.761 154.186 307V219.046Z" fill="#426665"/>
<path d="M192.279 275.721H261.209V286.605H192.279V275.721Z" fill="#1A3E3D"/>
<path d="M192.279 234H261.209V263.023H192.279V234Z" fill="#1A3E3D"/>
<path d="M197.721 239.442H255.767V257.581H197.721V239.442Z" fill="#426665"/>
<path d="M308.372 5C308.372 2.23857 310.611 0 313.372 0H448.488C451.25 0 453.488 2.23858 453.488 5V92.9535C453.488 95.7149 451.25 97.9535 448.488 97.9535H313.372C310.611 97.9535 308.372 95.7149 308.372 92.9535V5Z" fill="#426665"/>
<path d="M346.465 61.6744H415.395V72.5581H346.465V61.6744Z" fill="#1A3E3D"/>
<path d="M346.465 19.9535H415.395V48.9767H346.465V19.9535Z" fill="#1A3E3D"/>
<path d="M351.907 25.3953H409.953V43.5349H351.907V25.3953Z" fill="#426665"/>
<path d="M308.372 219.046C308.372 216.285 310.611 214.046 313.372 214.046H448.488C451.25 214.046 453.488 216.285 453.488 219.046V307C453.488 309.761 451.25 312 448.488 312H313.372C310.611 312 308.372 309.761 308.372 307V219.046Z" fill="#426665"/>
<path d="M346.465 275.721H415.395V286.605H346.465V275.721Z" fill="#1A3E3D"/>
<path d="M346.465 234H415.395V263.023H346.465V234Z" fill="#1A3E3D"/>
<path d="M351.907 239.442H409.953V257.581H351.907V239.442Z" fill="#426665"/>
<path d="M308.372 112.023C308.372 109.262 310.611 107.023 313.372 107.023H448.488C451.25 107.023 453.488 109.262 453.488 112.023V199.977C453.488 202.738 451.25 204.977 448.488 204.977H313.372C310.611 204.977 308.372 202.738 308.372 199.977V112.023Z" fill="#426665"/>
<path d="M346.465 168.698H415.395V179.582H346.465V168.698Z" fill="#1A3E3D"/>
<path d="M346.465 126.977H415.395V156H346.465V126.977Z" fill="#1A3E3D"/>
<path d="M351.907 132.419H409.953V150.558H351.907V132.419Z" fill="#426665"/>
</svg>
