<svg width="75" height="75" viewBox="0 0 75 75" fill="none" xmlns="http://www.w3.org/2000/svg">
<path d="M20.2406 12.5953C24.5344 10.6453 30.6375 9.375 37.5 9.375C44.3625 9.375 50.4656 10.6406 54.7594 12.5953C59.2688 14.6484 60.9375 17.0016 60.9375 18.75C60.9375 20.5031 59.2688 22.8516 54.7594 24.9047C50.4656 26.8547 44.3625 28.125 37.5 28.125C30.6375 28.125 24.5344 26.8594 20.2406 24.9047C15.7312 22.8516 14.0625 20.4984 14.0625 18.75C14.0625 16.9969 15.7312 14.6484 20.2406 12.5953ZM60.9375 26.7094V32.8125C60.9375 34.5656 59.2688 36.9141 54.7594 38.9672C50.4656 40.9172 44.3625 42.1875 37.5 42.1875C30.6375 42.1875 24.5344 40.9219 20.2406 38.9672C15.7312 36.9141 14.0625 34.5609 14.0625 32.8125V26.7094C15.3328 27.6562 16.7813 28.4813 18.3 29.1703C23.3344 31.4578 30.1266 32.8125 37.5 32.8125C44.8734 32.8125 51.6656 31.4578 56.7 29.1703C58.1959 28.5028 59.6164 27.6778 60.9375 26.7094ZM65.625 18.75C65.625 14.0297 61.5234 10.5234 56.7 8.32969C51.6656 6.04219 44.8734 4.6875 37.5 4.6875C30.1266 4.6875 23.3344 6.04219 18.3 8.32969C13.4766 10.5234 9.375 14.0297 9.375 18.75V60.9375C9.375 65.6578 13.4766 69.1641 18.3 71.3578C23.3344 73.6406 30.1266 75 37.5 75C44.8734 75 51.6656 73.6453 56.7 71.3578C61.5234 69.1641 65.625 65.6578 65.625 60.9375V18.75ZM60.9375 40.7719V46.875C60.9375 48.6281 59.2688 50.9766 54.7594 53.0297C50.4656 54.9797 44.3625 56.25 37.5 56.25C30.6375 56.25 24.5344 54.9844 20.2406 53.0297C15.7312 50.9766 14.0625 48.6234 14.0625 46.875V40.7719C15.3328 41.7187 16.7813 42.5437 18.3 43.2328C23.3344 45.5156 30.1266 46.875 37.5 46.875C44.8734 46.875 51.6656 45.5203 56.7 43.2328C58.1959 42.5653 59.6164 41.7403 60.9375 40.7719ZM60.9375 54.8344V60.9375C60.9375 62.6906 59.2688 65.0391 54.7594 67.0922C50.4656 69.0422 44.3625 70.3125 37.5 70.3125C30.6375 70.3125 24.5344 69.0469 20.2406 67.0922C15.7312 65.0391 14.0625 62.6859 14.0625 60.9375V54.8344C15.3328 55.7812 16.7813 56.6062 18.3 57.2953C23.3344 59.5781 30.1266 60.9375 37.5 60.9375C44.8734 60.9375 51.6656 59.5828 56.7 57.2953C58.2187 56.6062 59.6672 55.7812 60.9375 54.8344Z" fill="#D6A558"/>
</svg>
