<svg width="75" height="75" viewBox="0 0 75 75" fill="none" xmlns="http://www.w3.org/2000/svg">
<path d="M7.03125 7.03125C7.03125 6.40965 7.27818 5.81351 7.71772 5.37397C8.15726 4.93443 8.7534 4.6875 9.375 4.6875H65.625C66.2466 4.6875 66.8427 4.93443 67.2823 5.37397C67.7218 5.81351 67.9688 6.40965 67.9688 7.03125V16.4062C67.9686 16.9843 67.755 17.5418 67.3687 17.9719L46.875 40.7438V63.2812C46.8746 63.773 46.7196 64.2521 46.4319 64.6508C46.1442 65.0496 45.7384 65.3477 45.2719 65.5031L31.2094 70.1906C30.8572 70.3079 30.4822 70.3399 30.1153 70.2839C29.7484 70.2279 29.4 70.0856 29.0988 69.8687C28.7977 69.6517 28.5523 69.3663 28.383 69.036C28.2137 68.7057 28.1253 68.3399 28.125 67.9688V40.7438L7.63125 17.9719C7.24504 17.5418 7.03135 16.9843 7.03125 16.4062V7.03125ZM11.7188 9.375V15.5063L32.2125 38.2781C32.5987 38.7082 32.8124 39.2657 32.8125 39.8438V64.7156L42.1875 61.5938V39.8438C42.1876 39.2657 42.4013 38.7082 42.7875 38.2781L63.2812 15.5063V9.375H11.7188Z" fill="#D6A558"/>
</svg>
