<svg width="75" height="75" viewBox="0 0 75 75" fill="none" xmlns="http://www.w3.org/2000/svg">
<g clip-path="url(#clip0_28_208)">
<path d="M55.0406 48.4876C59.5794 42.2939 61.6124 34.6149 60.7326 26.9867C59.8529 19.3586 56.1253 12.3439 50.2957 7.34603C44.4661 2.34817 36.9644 -0.264253 29.2914 0.031402C21.6183 0.327057 14.3399 3.50899 8.91213 8.94061C3.4844 14.3722 0.307673 21.653 0.0175082 29.3262C-0.272657 36.9994 2.34514 44.4993 7.34716 50.3253C12.3492 56.1513 19.3666 59.8739 26.9953 60.7482C34.6241 61.6225 42.3017 59.584 48.4921 55.0407H48.4874C48.6281 55.2282 48.7781 55.4063 48.9468 55.5798L66.9937 73.6267C67.8726 74.5062 69.065 75.0006 70.3084 75.001C71.5519 75.0015 72.7446 74.5079 73.6242 73.629C74.5037 72.7501 74.9981 71.5577 74.9985 70.3143C74.999 69.0708 74.5054 67.8781 73.6265 66.9985L55.5796 48.9517C55.412 48.782 55.2318 48.63 55.0406 48.4876ZM56.2499 30.4689C56.2499 33.8545 55.5831 37.207 54.2875 40.3349C52.9918 43.4628 51.0928 46.3049 48.6988 48.6989C46.3048 51.093 43.4627 52.992 40.3347 54.2876C37.2068 55.5832 33.8543 56.2501 30.4687 56.2501C27.083 56.2501 23.7306 55.5832 20.6026 54.2876C17.4747 52.992 14.6326 51.093 12.2386 48.6989C9.84458 46.3049 7.94555 43.4628 6.64992 40.3349C5.35429 37.207 4.68744 33.8545 4.68744 30.4689C4.68744 23.6312 7.40367 17.0737 12.2386 12.2388C17.0735 7.40384 23.6311 4.6876 30.4687 4.6876C37.3063 4.6876 43.8639 7.40384 48.6988 12.2388C53.5337 17.0737 56.2499 23.6312 56.2499 30.4689Z" fill="#D6A558"/>
</g>
<defs>
<clipPath id="clip0_28_208">
<rect width="75" height="75" fill="white"/>
</clipPath>
</defs>
</svg>
