<svg width="75" height="75" viewBox="0 0 75 75" fill="none" xmlns="http://www.w3.org/2000/svg">
<path d="M56.25 56.25C57.4932 56.25 58.6855 55.7561 59.5646 54.8771C60.4437 53.998 60.9375 52.8057 60.9375 51.5625V40.1156C60.9375 38.8724 60.4437 37.6801 59.5646 36.8011C58.6855 35.922 57.4932 35.4281 56.25 35.4281H49.7438C49.7438 33.7828 49.8422 32.1328 50.0344 30.4875C50.325 28.7438 50.8125 27.1922 51.4875 25.8375C52.1672 24.4781 53.0391 23.4141 54.1078 22.6359C55.1719 21.7641 56.5266 21.3281 58.1766 21.3281V14.0625C55.4625 14.0625 53.0906 14.6437 51.0516 15.8062C49.0303 16.957 47.2924 18.5459 45.9656 20.4562C44.634 22.5624 43.6526 24.8705 43.0594 27.2906C42.4617 29.9614 42.1692 32.6914 42.1875 35.4281V51.5625C42.1875 52.8057 42.6814 53.998 43.5605 54.8771C44.4395 55.7561 45.6318 56.25 46.875 56.25H56.25ZM28.125 56.25C29.3682 56.25 30.5605 55.7561 31.4396 54.8771C32.3187 53.998 32.8125 52.8057 32.8125 51.5625V40.1156C32.8125 38.8724 32.3187 37.6801 31.4396 36.8011C30.5605 35.922 29.3682 35.4281 28.125 35.4281H21.6188C21.6188 33.7828 21.7172 32.1328 21.9094 30.4875C22.2 28.7438 22.6875 27.1922 23.3625 25.8375C24.0422 24.4781 24.9141 23.4141 25.9828 22.6359C27.0469 21.7641 28.4016 21.3281 30.0516 21.3281V14.0625C27.3375 14.0625 24.9656 14.6437 22.9266 15.8062C20.9053 16.957 19.1674 18.5459 17.8406 20.4562C16.509 22.5624 15.5276 24.8705 14.9344 27.2906C14.3367 29.9614 14.0442 32.6914 14.0625 35.4281V51.5625C14.0625 52.8057 14.5564 53.998 15.4355 54.8771C16.3145 55.7561 17.5068 56.25 18.75 56.25H28.125Z" fill="#D6A558"/>
</svg>
