<svg width="75" height="75" viewBox="0 0 75 75" fill="none" xmlns="http://www.w3.org/2000/svg">
<path d="M51.5625 9.375C51.5625 8.1318 52.0564 6.93951 52.9354 6.06044C53.8145 5.18136 55.0068 4.6875 56.25 4.6875H65.625C66.8682 4.6875 68.0605 5.18136 68.9396 6.06044C69.8186 6.93951 70.3125 8.1318 70.3125 9.375V65.625H72.6562C73.2779 65.625 73.874 65.8719 74.3135 66.3115C74.7531 66.751 75 67.3471 75 67.9688C75 68.5904 74.7531 69.1865 74.3135 69.626C73.874 70.0656 73.2779 70.3125 72.6562 70.3125H2.34375C1.72215 70.3125 1.12601 70.0656 0.686469 69.626C0.24693 69.1865 0 68.5904 0 67.9688C0 67.3471 0.24693 66.751 0.686469 66.3115C1.12601 65.8719 1.72215 65.625 2.34375 65.625H4.6875V51.5625C4.6875 50.3193 5.18136 49.127 6.06044 48.2479C6.93951 47.3689 8.1318 46.875 9.375 46.875H18.75C19.9932 46.875 21.1855 47.3689 22.0646 48.2479C22.9436 49.127 23.4375 50.3193 23.4375 51.5625V65.625H28.125V32.8125C28.125 31.5693 28.6189 30.377 29.4979 29.4979C30.377 28.6189 31.5693 28.125 32.8125 28.125H42.1875C43.4307 28.125 44.623 28.6189 45.5021 29.4979C46.3811 30.377 46.875 31.5693 46.875 32.8125V65.625H51.5625V9.375ZM56.25 65.625H65.625V9.375H56.25V65.625ZM42.1875 65.625V32.8125H32.8125V65.625H42.1875ZM18.75 65.625V51.5625H9.375V65.625H18.75Z" fill="#D6A558"/>
</svg>
