<svg width="75" height="75" viewBox="0 0 75 75" fill="none" xmlns="http://www.w3.org/2000/svg">
<path d="M9.375 9.375C9.375 6.8886 10.3627 4.50403 12.1209 2.74587C13.879 0.987721 16.2636 0 18.75 0L56.25 0C58.7364 0 61.121 0.987721 62.8791 2.74587C64.6373 4.50403 65.625 6.8886 65.625 9.375V72.6562C65.6248 73.0802 65.5096 73.4961 65.2917 73.8598C65.0737 74.2234 64.7613 74.5212 64.3875 74.7213C64.0138 74.9214 63.5927 75.0164 63.1693 74.9961C62.7458 74.9759 62.3358 74.8411 61.9828 74.6063L37.5 61.4109L13.0172 74.6063C12.6642 74.8411 12.2542 74.9759 11.8307 74.9961C11.4073 75.0164 10.9862 74.9214 10.6125 74.7213C10.2387 74.5212 9.92627 74.2234 9.70835 73.8598C9.49043 73.4961 9.37522 73.0802 9.375 72.6562V9.375ZM18.75 4.6875C17.5068 4.6875 16.3145 5.18136 15.4354 6.06044C14.5564 6.93951 14.0625 8.1318 14.0625 9.375V68.2781L36.2016 56.6437C36.5862 56.3878 37.038 56.2512 37.5 56.2512C37.962 56.2512 38.4138 56.3878 38.7984 56.6437L60.9375 68.2781V9.375C60.9375 8.1318 60.4436 6.93951 59.5646 6.06044C58.6855 5.18136 57.4932 4.6875 56.25 4.6875H18.75Z" fill="#D6A558"/>
</svg>
