<svg width="75" height="75" viewBox="0 0 75 75" fill="none" xmlns="http://www.w3.org/2000/svg">
<g clip-path="url(#clip0_28_295)">
<path d="M63.2812 4.68751C61.4164 4.68751 59.628 5.4283 58.3094 6.74691C56.9908 8.06553 56.25 9.85395 56.25 11.7188C56.25 13.5836 56.9908 15.372 58.3094 16.6906C59.628 18.0092 61.4164 18.75 63.2812 18.75C65.146 18.75 66.9345 18.0092 68.2531 16.6906C69.5717 15.372 70.3125 13.5836 70.3125 11.7188C70.3125 9.85395 69.5717 8.06553 68.2531 6.74691C66.9345 5.4283 65.146 4.68751 63.2812 4.68751ZM51.5625 11.7188C51.5622 8.96922 52.5286 6.30711 54.2928 4.19818C56.057 2.08926 58.5066 0.667805 61.2129 0.182525C63.9193 -0.302755 66.7101 0.179039 69.0972 1.54361C71.4842 2.90819 73.3154 5.06864 74.2704 7.647C75.2254 10.2254 75.2434 13.0574 74.3212 15.6477C73.399 18.238 71.5954 20.4215 69.2259 21.8163C66.8564 23.2111 64.072 23.7283 61.3596 23.2774C58.6473 22.8266 56.1799 21.4364 54.3891 19.35L22.8984 33.975C23.6224 36.2693 23.6224 38.7308 22.8984 41.025L54.3891 55.65C56.2821 53.4484 58.925 52.028 61.8056 51.664C64.6862 51.3 67.5994 52.0183 69.9805 53.6798C72.3617 55.3413 74.0413 57.8276 74.6937 60.6568C75.3462 63.4861 74.9252 66.4568 73.5121 68.9933C72.0991 71.5298 69.7948 73.4514 67.0457 74.3857C64.2966 75.3201 61.2985 75.2006 58.6325 74.0504C55.9666 72.9002 53.8225 70.8013 52.6158 68.1603C51.4092 65.5194 51.2259 62.5246 52.1016 59.7563L20.6109 45.1313C19.052 46.948 16.9741 48.2437 14.6568 48.8442C12.3394 49.4446 9.89373 49.3209 7.64876 48.4897C5.4038 47.6586 3.46722 46.1598 2.09956 44.1951C0.731893 42.2304 -0.00125122 39.8939 -0.00125122 37.5C-0.00125122 35.1061 0.731893 32.7697 2.09956 30.8049C3.46722 28.8402 5.4038 27.3414 7.64876 26.5103C9.89373 25.6791 12.3394 25.5554 14.6568 26.1559C16.9741 26.7563 19.052 28.052 20.6109 29.8688L52.1016 15.2438C51.7431 14.1031 51.5613 12.9144 51.5625 11.7188ZM11.7187 30.4688C9.85394 30.4688 8.06551 31.2095 6.7469 32.5282C5.42828 33.8468 4.68749 35.6352 4.68749 37.5C4.68749 39.3648 5.42828 41.1532 6.7469 42.4719C8.06551 43.7905 9.85394 44.5313 11.7187 44.5313C13.5835 44.5313 15.372 43.7905 16.6906 42.4719C18.0092 41.1532 18.75 39.3648 18.75 37.5C18.75 35.6352 18.0092 33.8468 16.6906 32.5282C15.372 31.2095 13.5835 30.4688 11.7187 30.4688ZM63.2812 56.25C61.4164 56.25 59.628 56.9908 58.3094 58.3094C56.9908 59.628 56.25 61.4165 56.25 63.2813C56.25 65.1461 56.9908 66.9345 58.3094 68.2531C59.628 69.5717 61.4164 70.3125 63.2812 70.3125C65.146 70.3125 66.9345 69.5717 68.2531 68.2531C69.5717 66.9345 70.3125 65.1461 70.3125 63.2813C70.3125 61.4165 69.5717 59.628 68.2531 58.3094C66.9345 56.9908 65.146 56.25 63.2812 56.25Z" fill="#D6A558"/>
</g>
<defs>
<clipPath id="clip0_28_295">
<rect width="75" height="75" fill="white"/>
</clipPath>
</defs>
</svg>
